<svg xmlns="http://www.w3.org/2000/svg" xmlns:xlink="http://www.w3.org/1999/xlink" width="180" zoomAndPan="magnify" viewBox="0 0 135 60" height="80" preserveAspectRatio="xMidYMid meet" version="1.0"><defs><clipPath id="39fd4b02b9"><path d="M 6 4 L 25 4 L 25 56 L 6 56 Z M 6 4 " clip-rule="nonzero"/></clipPath><clipPath id="059854d23f"><path d="M 24.488281 53.082031 C 24.476562 52.566406 24.46875 51.902344 24.46875 51.089844 L 24.46875 44.789062 C 24.46875 42.972656 24.207031 41.488281 23.675781 40.332031 C 23.214844 39.253906 22.523438 38.351562 21.605469 37.621094 C 20.746094 36.96875 19.789062 36.527344 18.738281 36.300781 C 17.691406 36.070312 16.636719 35.957031 15.566406 35.953125 C 14.917969 35.957031 14.273438 35.996094 13.628906 36.078125 C 12.96875 36.15625 12.320312 36.308594 11.691406 36.527344 L 11.679688 31.101562 C 11.832031 31.183594 11.988281 31.261719 12.148438 31.339844 C 13.25 31.851562 14.410156 32.101562 15.625 32.09375 C 16.90625 32.109375 18.132812 31.859375 19.304688 31.339844 C 20.378906 30.855469 21.3125 30.179688 22.109375 29.3125 C 22.894531 28.410156 23.488281 27.398438 23.894531 26.273438 C 24.328125 25.085938 24.539062 23.859375 24.53125 22.59375 C 24.546875 21.339844 24.328125 20.128906 23.875 18.960938 C 23.421875 17.792969 22.769531 16.753906 21.910156 15.839844 C 21.105469 14.984375 20.175781 14.3125 19.109375 13.816406 C 18.007812 13.304688 16.851562 13.050781 15.632812 13.0625 C 14.222656 13.03125 12.882812 13.339844 11.625 13.980469 L 11.625 12.90625 C 11.625 12.355469 11.628906 11.746094 11.644531 11.082031 C 11.65625 10.421875 11.664062 9.792969 11.664062 9.199219 L 11.664062 7.949219 C 11.664062 7.15625 11.664062 6.507812 11.683594 6.011719 C 11.703125 5.515625 11.71875 5.113281 11.742188 4.824219 C 11.765625 4.53125 11.792969 4.265625 11.820312 4.109375 C 10.175781 4.109375 8.925781 4.445312 8.0625 5.121094 C 7.203125 5.796875 6.769531 6.925781 6.769531 8.511719 L 6.769531 50.523438 C 6.769531 52.125 7.210938 53.273438 8.09375 53.976562 C 8.972656 54.679688 10.253906 55.03125 11.941406 55.03125 C 11.914062 54.871094 11.886719 54.628906 11.859375 54.300781 C 11.832031 53.976562 11.8125 53.597656 11.796875 53.082031 C 11.785156 52.570312 11.777344 51.90625 11.777344 51.097656 L 11.777344 44.8125 C 11.75 43.882812 11.859375 42.96875 12.101562 42.070312 C 12.273438 41.464844 12.5625 40.921875 12.976562 40.445312 C 13.3125 40.070312 13.71875 39.808594 14.195312 39.65625 C 15.097656 39.378906 16.003906 39.378906 16.90625 39.65625 C 17.386719 39.808594 17.792969 40.070312 18.125 40.445312 C 18.539062 40.921875 18.835938 41.464844 19.019531 42.070312 C 19.28125 42.964844 19.402344 43.878906 19.378906 44.8125 L 19.421875 50.535156 C 19.421875 52.136719 19.867188 53.285156 20.761719 53.988281 C 21.660156 54.691406 22.949219 55.042969 24.636719 55.042969 C 24.609375 54.882812 24.582031 54.636719 24.558594 54.3125 C 24.535156 53.988281 24.503906 53.597656 24.488281 53.082031 Z M 13.101562 17.605469 C 13.472656 17.203125 13.914062 16.90625 14.425781 16.714844 C 15.234375 16.382812 16.039062 16.382812 16.847656 16.714844 C 17.363281 16.90625 17.804688 17.203125 18.175781 17.605469 C 18.664062 18.152344 19.023438 18.769531 19.246094 19.464844 C 19.539062 20.273438 19.683594 21.304688 19.683594 22.566406 C 19.683594 23.828125 19.539062 24.859375 19.246094 25.667969 C 19.023438 26.363281 18.664062 26.984375 18.175781 27.527344 C 17.804688 27.929688 17.363281 28.226562 16.847656 28.417969 C 16.039062 28.746094 15.234375 28.746094 14.425781 28.417969 C 13.914062 28.226562 13.472656 27.929688 13.101562 27.527344 C 12.609375 26.984375 12.253906 26.363281 12.027344 25.667969 C 11.851562 25.152344 11.738281 24.621094 11.683594 24.078125 L 11.683594 21.140625 C 11.738281 20.566406 11.859375 20.011719 12.046875 19.464844 C 12.265625 18.769531 12.617188 18.152344 13.101562 17.605469 Z M 13.101562 17.605469 " clip-rule="nonzero"/></clipPath><linearGradient x1="280.76001" gradientTransform="matrix(0.19375, 0, 0, 0.19375, -38.692913, -74.539366)" y1="405.919948" x2="280.76001" gradientUnits="userSpaceOnUse" y2="668.810002" id="754fb1836e"><stop stop-opacity="1" stop-color="rgb(2.398682%, 40.79895%, 88.198853%)" offset="0"/><stop stop-opacity="1" stop-color="rgb(2.398682%, 40.79895%, 88.198853%)" offset="0.5"/><stop stop-opacity="1" stop-color="rgb(2.398682%, 40.79895%, 88.198853%)" offset="0.5625"/><stop stop-opacity="1" stop-color="rgb(2.398682%, 40.79895%, 88.198853%)" offset="0.578125"/><stop stop-opacity="1" stop-color="rgb(1.199341%, 45.498657%, 93.29834%)" offset="0.582031"/><stop stop-opacity="1" stop-color="rgb(0%, 50.19989%, 98.399353%)" offset="0.585938"/><stop stop-opacity="1" stop-color="rgb(0%, 50.19989%, 98.399353%)" offset="0.59375"/><stop stop-opacity="1" stop-color="rgb(0%, 50.19989%, 98.399353%)" offset="0.625"/><stop stop-opacity="1" stop-color="rgb(0%, 50.19989%, 98.399353%)" offset="0.75"/><stop stop-opacity="1" stop-color="rgb(0%, 50.19989%, 98.399353%)" offset="1"/></linearGradient><clipPath id="39211d4ed3"><path d="M 53 13 L 85 13 L 85 56 L 53 56 Z M 53 13 " clip-rule="nonzero"/></clipPath><clipPath id="7afb0f8641"><path d="M 76.890625 43.050781 C 77.621094 42.453125 78.339844 41.863281 79.042969 41.28125 C 79.746094 40.703125 80.398438 40.164062 80.996094 39.675781 L 82.558594 38.398438 C 83.007812 38.03125 83.339844 37.765625 83.554688 37.601562 C 83.433594 37.261719 83.246094 36.964844 82.984375 36.710938 C 82.71875 36.460938 82.414062 36.273438 82.070312 36.140625 C 81.5625 35.964844 81.039062 35.910156 80.507812 35.980469 C 79.859375 36.058594 79.226562 36.214844 78.617188 36.445312 C 77.898438 36.703125 76.992188 37.265625 75.90625 38.132812 C 75.632812 38.347656 75.300781 38.605469 74.910156 38.90625 C 74.519531 39.207031 74.109375 39.527344 73.691406 39.875 C 73.269531 40.222656 72.835938 40.582031 72.390625 40.933594 C 71.941406 41.28125 71.515625 41.609375 71.109375 41.902344 L 71.128906 22.566406 L 71.128906 22.402344 C 71.105469 20.660156 70.765625 18.429688 70.261719 17.339844 C 69.808594 16.289062 69.132812 15.410156 68.234375 14.699219 C 67.398438 14.066406 66.46875 13.640625 65.445312 13.421875 C 63.398438 12.964844 61.351562 12.964844 59.304688 13.421875 C 58.289062 13.640625 57.375 14.070312 56.5625 14.714844 C 55.6875 15.433594 55.023438 16.3125 54.574219 17.355469 C 54.058594 18.480469 53.800781 19.929688 53.800781 21.703125 L 53.761719 27.304688 C 53.761719 28.867188 54.199219 29.992188 55.074219 30.683594 C 55.945312 31.371094 57.207031 31.714844 58.851562 31.714844 C 58.824219 31.554688 58.796875 31.324219 58.773438 31 C 58.746094 30.675781 58.726562 30.3125 58.714844 29.808594 C 58.703125 29.304688 58.679688 28.660156 58.65625 27.871094 L 58.65625 21.714844 C 58.628906 20.804688 58.738281 19.914062 58.992188 19.042969 C 59.167969 18.449219 59.460938 17.921875 59.863281 17.453125 C 60.191406 17.085938 60.585938 16.828125 61.054688 16.679688 C 61.488281 16.550781 61.933594 16.484375 62.382812 16.484375 C 62.847656 16.484375 63.296875 16.550781 63.742188 16.679688 C 64.21875 16.828125 64.628906 17.085938 64.972656 17.453125 C 65.386719 17.917969 65.6875 18.445312 65.863281 19.042969 C 66.089844 19.714844 66.234375 21.0625 66.234375 22.171875 L 66.117188 50.53125 C 66.117188 52.128906 66.558594 53.28125 67.441406 53.984375 C 68.324219 54.683594 69.605469 55.039062 71.289062 55.039062 C 71.261719 54.878906 71.234375 54.632812 71.207031 54.308594 C 71.179688 53.984375 71.160156 53.605469 71.148438 53.089844 C 71.132812 52.574219 71.128906 51.910156 71.128906 51.097656 L 71.128906 47.839844 C 71.398438 47.625 71.714844 47.363281 72.082031 47.050781 C 72.449219 46.738281 72.847656 46.40625 73.28125 46.054688 C 73.445312 46.273438 73.667969 46.59375 73.953125 47.023438 C 74.234375 47.453125 74.554688 47.929688 74.90625 48.445312 C 75.257812 48.960938 75.625 49.5 76.003906 50.070312 L 77.0625 51.65625 C 77.628906 52.492188 78.277344 53.253906 79.011719 53.953125 C 79.710938 54.628906 80.550781 54.960938 81.527344 54.949219 C 81.863281 54.945312 82.1875 54.882812 82.496094 54.765625 C 82.796875 54.65625 83.082031 54.511719 83.351562 54.335938 C 83.644531 54.152344 83.917969 53.933594 84.164062 53.6875 L 81.402344 49.664062 Z M 76.890625 43.050781 " clip-rule="nonzero"/></clipPath><linearGradient x1="555.64001" gradientTransform="matrix(0.19375, 0, 0, 0.19375, -38.692913, -74.539366)" y1="451.637939" x2="555.64001" gradientUnits="userSpaceOnUse" y2="668.790042" id="6a4ac7fb7f"><stop stop-opacity="1" stop-color="rgb(2.398682%, 40.79895%, 88.198853%)" offset="0"/><stop stop-opacity="1" stop-color="rgb(2.398682%, 40.79895%, 88.198853%)" offset="0.25"/><stop stop-opacity="1" stop-color="rgb(2.398682%, 40.79895%, 88.198853%)" offset="0.375"/><stop stop-opacity="1" stop-color="rgb(2.398682%, 40.79895%, 88.198853%)" offset="0.4375"/><stop stop-opacity="1" stop-color="rgb(2.398682%, 40.79895%, 88.198853%)" offset="0.46875"/><stop stop-opacity="1" stop-color="rgb(2.398682%, 40.79895%, 88.198853%)" offset="0.484375"/><stop stop-opacity="1" stop-color="rgb(2.398682%, 40.79895%, 88.198853%)" offset="0.492188"/><stop stop-opacity="1" stop-color="rgb(1.199341%, 45.498657%, 93.29834%)" offset="0.496094"/><stop stop-opacity="1" stop-color="rgb(0%, 50.19989%, 98.399353%)" offset="0.5"/><stop stop-opacity="1" stop-color="rgb(0%, 50.19989%, 98.399353%)" offset="1"/></linearGradient></defs><path fill="#0668e1" d="M 30.917969 30.996094 C 30.890625 30.707031 30.871094 30.316406 30.859375 29.824219 C 30.84375 29.335938 30.839844 28.691406 30.839844 27.898438 L 30.839844 22.140625 C 30.839844 21.03125 30.949219 20.140625 31.175781 19.480469 C 31.347656 18.90625 31.632812 18.398438 32.03125 17.949219 C 32.355469 17.601562 32.742188 17.351562 33.191406 17.195312 C 33.625 17.050781 34.070312 16.953125 34.523438 16.898438 C 35.210938 16.816406 35.707031 16.59375 36.011719 16.222656 C 36.300781 15.890625 36.480469 15.503906 36.546875 15.070312 C 36.625 14.546875 36.597656 14.03125 36.46875 13.519531 L 34.53125 13.519531 C 33.507812 13.523438 32.492188 13.636719 31.492188 13.859375 C 30.421875 14.082031 29.464844 14.542969 28.621094 15.238281 C 27.777344 15.933594 27.144531 16.785156 26.722656 17.792969 C 26.203125 18.917969 25.945312 20.367188 25.945312 22.140625 L 25.945312 27.304688 C 25.945312 28.898438 26.382812 30.03125 27.257812 30.703125 C 28.136719 31.378906 29.382812 31.714844 31 31.714844 C 30.96875 31.550781 30.945312 31.3125 30.917969 30.996094 Z M 30.917969 30.996094 " fill-opacity="1" fill-rule="nonzero"/><path fill="#0668e1" d="M 50.570312 29.007812 C 51.972656 27.289062 52.671875 25.050781 52.671875 22.296875 L 52.671875 21.980469 C 52.621094 19.304688 51.839844 17.148438 50.332031 15.507812 C 49.582031 14.730469 48.710938 14.125 47.71875 13.699219 C 46.652344 13.242188 45.535156 13.023438 44.375 13.035156 L 44.039062 13.035156 C 43.925781 13.039062 43.8125 13.050781 43.703125 13.074219 C 42.5 13.140625 41.351562 13.429688 40.257812 13.9375 C 39.167969 14.445312 38.210938 15.140625 37.386719 16.019531 L 37.308594 16.140625 L 37.386719 16.300781 C 37.582031 16.679688 37.859375 16.988281 38.21875 17.214844 C 38.558594 17.375 38.917969 17.457031 39.292969 17.453125 C 39.65625 17.453125 40.011719 17.40625 40.363281 17.316406 C 40.734375 17.226562 41.105469 17.117188 41.476562 16.980469 C 41.847656 16.851562 42.21875 16.738281 42.589844 16.648438 C 42.953125 16.554688 43.324219 16.496094 43.703125 16.46875 L 44.136719 16.46875 C 44.492188 16.464844 44.84375 16.496094 45.1875 16.566406 C 45.488281 16.632812 45.769531 16.730469 46.042969 16.863281 C 46.777344 17.269531 47.292969 17.859375 47.59375 18.640625 C 47.875 19.34375 48.046875 20.070312 48.105469 20.824219 C 46.828125 20.417969 45.519531 20.21875 44.179688 20.226562 C 43.222656 20.222656 42.285156 20.335938 41.355469 20.566406 C 40.496094 20.773438 39.6875 21.109375 38.933594 21.578125 C 38.214844 22.027344 37.644531 22.625 37.226562 23.367188 C 36.804688 24.054688 36.59375 24.914062 36.59375 25.949219 L 36.59375 26.183594 C 36.585938 27.203125 36.851562 28.144531 37.386719 29.007812 C 37.707031 29.59375 38.132812 30.089844 38.65625 30.5 C 39.699219 31.246094 40.851562 31.734375 42.113281 31.96875 C 42.691406 32.058594 43.269531 32.105469 43.855469 32.105469 L 44.371094 32.105469 C 44.53125 32.105469 44.691406 32.09375 44.847656 32.066406 C 45.992188 31.953125 47.070312 31.621094 48.082031 31.074219 C 49.050781 30.550781 49.878906 29.863281 50.570312 29.007812 Z M 47.351562 26.765625 C 47.222656 27.027344 47.0625 27.273438 46.875 27.5 C 46.6875 27.730469 46.460938 27.925781 46.203125 28.082031 C 45.621094 28.488281 44.976562 28.703125 44.265625 28.714844 C 44.109375 28.746094 43.949219 28.761719 43.789062 28.757812 C 43.21875 28.78125 42.667969 28.6875 42.140625 28.476562 C 41.773438 28.328125 41.464844 28.101562 41.207031 27.800781 C 40.980469 27.554688 40.820312 27.269531 40.730469 26.945312 C 40.652344 26.667969 40.613281 26.382812 40.609375 26.09375 C 40.605469 25.972656 40.621094 25.851562 40.652344 25.734375 C 40.675781 25.507812 40.726562 25.289062 40.808594 25.078125 C 40.886719 24.882812 40.992188 24.703125 41.128906 24.542969 C 41.523438 24.050781 42.027344 23.71875 42.636719 23.546875 C 42.945312 23.4375 43.261719 23.363281 43.589844 23.328125 C 43.945312 23.289062 44.300781 23.269531 44.660156 23.269531 C 45.105469 23.269531 45.550781 23.296875 45.992188 23.347656 C 46.425781 23.402344 46.820312 23.457031 47.152344 23.507812 C 47.347656 23.5625 47.496094 23.601562 47.628906 23.628906 C 47.761719 23.65625 47.878906 23.679688 47.988281 23.707031 C 48.007812 23.707031 48.03125 23.710938 48.046875 23.726562 C 48.0625 23.742188 48.082031 23.75 48.105469 23.746094 C 48.101562 24.242188 48.046875 24.730469 47.945312 25.214844 C 47.835938 25.765625 47.636719 26.28125 47.351562 26.765625 Z M 47.351562 26.765625 " fill-opacity="1" fill-rule="nonzero"/><path fill="#0668e1" d="M 74.980469 29.324219 C 75.800781 30.175781 76.75 30.851562 77.820312 31.351562 C 78.910156 31.863281 80.054688 32.113281 81.257812 32.105469 C 82.539062 32.125 83.765625 31.875 84.9375 31.351562 C 86.011719 30.871094 86.945312 30.195312 87.742188 29.328125 C 88.527344 28.425781 89.121094 27.414062 89.527344 26.292969 C 89.953125 25.105469 90.164062 23.882812 90.152344 22.621094 L 90.191406 7.972656 C 90.191406 7.179688 90.199219 6.53125 90.210938 6.035156 C 90.222656 5.539062 90.242188 5.140625 90.269531 4.84375 C 90.296875 4.527344 90.324219 4.289062 90.347656 4.128906 C 88.707031 4.128906 87.445312 4.464844 86.570312 5.140625 C 85.695312 5.816406 85.257812 6.945312 85.257812 8.53125 L 85.308594 14.121094 C 84.050781 13.410156 82.699219 13.066406 81.253906 13.082031 C 79.972656 13.0625 78.746094 13.316406 77.574219 13.835938 C 76.5 14.320312 75.570312 14.996094 74.773438 15.863281 C 73.992188 16.761719 73.402344 17.773438 73.007812 18.902344 C 72.585938 20.101562 72.382812 21.339844 72.390625 22.613281 C 72.386719 23.898438 72.625 25.136719 73.101562 26.328125 C 73.539062 27.445312 74.164062 28.445312 74.980469 29.324219 Z M 77.648438 19.464844 C 77.871094 18.769531 78.230469 18.148438 78.71875 17.605469 C 79.089844 17.203125 79.53125 16.90625 80.046875 16.714844 C 80.851562 16.382812 81.660156 16.382812 82.464844 16.714844 C 82.980469 16.90625 83.425781 17.203125 83.796875 17.605469 C 84.285156 18.148438 84.640625 18.769531 84.867188 19.464844 C 85.15625 20.273438 85.304688 21.304688 85.304688 22.566406 C 85.304688 23.828125 85.15625 24.859375 84.867188 25.667969 C 84.640625 26.363281 84.285156 26.984375 83.796875 27.527344 C 83.425781 27.929688 82.980469 28.226562 82.464844 28.417969 C 81.660156 28.746094 80.851562 28.746094 80.046875 28.417969 C 79.53125 28.226562 79.089844 27.929688 78.71875 27.527344 C 78.230469 26.984375 77.871094 26.363281 77.648438 25.667969 C 77.359375 24.859375 77.210938 23.828125 77.210938 22.566406 C 77.210938 21.304688 77.359375 20.273438 77.648438 19.464844 Z M 77.648438 19.464844 " fill-opacity="1" fill-rule="nonzero"/><g clip-path="url(#39fd4b02b9)"><g clip-path="url(#059854d23f)"><path fill="url(#754fb1836e)" d="M 6.769531 4.109375 L 6.769531 55.042969 L 24.636719 55.042969 L 24.636719 4.109375 Z M 6.769531 4.109375 " fill-rule="nonzero"/></g></g><path fill="#0080fb" d="M 39.050781 36.597656 C 37.960938 36.136719 36.820312 35.914062 35.636719 35.925781 L 35.292969 35.925781 C 35.175781 35.929688 35.0625 35.941406 34.949219 35.96875 C 33.714844 36.035156 32.542969 36.328125 31.425781 36.851562 C 30.308594 37.371094 29.328125 38.082031 28.484375 38.984375 L 28.40625 39.105469 L 28.484375 39.269531 C 28.683594 39.660156 28.96875 39.972656 29.339844 40.207031 C 29.6875 40.371094 30.054688 40.453125 30.4375 40.453125 C 30.808594 40.449219 31.175781 40.402344 31.535156 40.308594 C 31.917969 40.214844 32.296875 40.101562 32.671875 39.96875 C 33.050781 39.835938 33.429688 39.722656 33.808594 39.625 C 34.183594 39.53125 34.5625 39.46875 34.949219 39.441406 L 35.394531 39.441406 C 35.753906 39.4375 36.113281 39.472656 36.46875 39.542969 C 36.773438 39.605469 37.066406 39.707031 37.34375 39.847656 C 38.09375 40.257812 38.621094 40.867188 38.929688 41.664062 C 39.21875 42.378906 39.394531 43.121094 39.457031 43.886719 C 38.148438 43.476562 36.808594 43.273438 35.4375 43.28125 C 34.460938 43.277344 33.496094 43.390625 32.550781 43.625 C 31.667969 43.839844 30.839844 44.183594 30.070312 44.660156 C 29.332031 45.121094 28.75 45.734375 28.328125 46.492188 C 27.894531 47.199219 27.675781 48.078125 27.675781 49.136719 L 27.675781 49.378906 C 27.667969 50.421875 27.941406 51.382812 28.488281 52.265625 C 28.816406 52.863281 29.25 53.371094 29.789062 53.789062 C 30.859375 54.554688 32.035156 55.054688 33.324219 55.296875 C 33.917969 55.386719 34.515625 55.433594 35.113281 55.4375 L 35.640625 55.4375 C 35.804688 55.4375 35.96875 55.425781 36.128906 55.398438 C 37.300781 55.277344 38.402344 54.941406 39.441406 54.382812 C 40.425781 53.84375 41.273438 53.140625 41.980469 52.269531 C 43.414062 50.507812 44.132812 48.21875 44.136719 45.398438 L 44.136719 45.070312 C 44.082031 42.335938 43.28125 40.128906 41.738281 38.449219 C 40.964844 37.652344 40.070312 37.035156 39.050781 36.597656 Z M 39.296875 48.382812 C 39.179688 48.945312 38.976562 49.476562 38.683594 49.96875 C 38.550781 50.238281 38.390625 50.488281 38.199219 50.722656 C 38.003906 50.957031 37.769531 51.148438 37.507812 51.304688 C 36.910156 51.726562 36.246094 51.949219 35.511719 51.964844 C 35.351562 51.996094 35.1875 52.007812 35.023438 52.003906 C 34.441406 52.027344 33.878906 51.933594 33.335938 51.71875 C 32.964844 51.566406 32.644531 51.335938 32.382812 51.027344 C 32.148438 50.777344 31.988281 50.484375 31.894531 50.152344 C 31.816406 49.867188 31.777344 49.574219 31.773438 49.277344 C 31.769531 49.15625 31.78125 49.03125 31.816406 48.914062 C 31.839844 48.679688 31.894531 48.457031 31.976562 48.242188 C 32.054688 48.039062 32.164062 47.859375 32.300781 47.691406 C 32.710938 47.1875 33.226562 46.847656 33.851562 46.675781 C 34.164062 46.5625 34.488281 46.488281 34.820312 46.449219 C 35.183594 46.410156 35.550781 46.390625 35.917969 46.390625 C 36.371094 46.390625 36.820312 46.417969 37.273438 46.472656 C 37.71875 46.523438 38.121094 46.578125 38.472656 46.632812 C 38.664062 46.6875 38.824219 46.730469 38.957031 46.757812 C 39.09375 46.78125 39.214844 46.808594 39.324219 46.835938 C 39.347656 46.835938 39.367188 46.84375 39.382812 46.859375 C 39.402344 46.875 39.421875 46.878906 39.445312 46.878906 C 39.445312 47.382812 39.394531 47.886719 39.296875 48.382812 Z M 39.296875 48.382812 " fill-opacity="1" fill-rule="nonzero"/><path fill="#0080fb" d="M 53.480469 40.597656 C 53.859375 40.183594 54.3125 39.878906 54.835938 39.683594 C 55.234375 39.535156 55.648438 39.457031 56.074219 39.441406 C 56.625 39.441406 57.167969 39.5 57.703125 39.625 C 58.171875 39.734375 58.632812 39.875 59.082031 40.050781 L 60.246094 40.4375 C 60.59375 40.558594 60.953125 40.617188 61.324219 40.621094 C 61.691406 40.636719 62.03125 40.542969 62.339844 40.335938 C 62.664062 40.207031 62.976562 39.894531 63.273438 39.402344 L 63.394531 39.238281 L 63.273438 39.113281 C 62.351562 38.101562 61.265625 37.324219 60.011719 36.773438 C 58.757812 36.226562 57.449219 35.957031 56.078125 35.96875 C 54.828125 35.945312 53.628906 36.183594 52.480469 36.679688 C 51.328125 37.175781 50.335938 37.886719 49.492188 38.8125 C 48.683594 39.734375 48.074219 40.773438 47.660156 41.921875 C 47.214844 43.152344 47 44.417969 47.007812 45.722656 C 47 47.035156 47.234375 48.304688 47.71875 49.523438 C 48.160156 50.664062 48.796875 51.679688 49.636719 52.570312 C 50.472656 53.460938 51.449219 54.160156 52.5625 54.664062 C 53.691406 55.191406 54.875 55.449219 56.121094 55.441406 C 57.5 55.449219 58.824219 55.171875 60.082031 54.605469 C 61.304688 54.058594 62.367188 53.292969 63.273438 52.304688 L 63.394531 52.179688 L 63.3125 52.015625 C 63.058594 51.648438 62.746094 51.335938 62.378906 51.082031 C 62.050781 50.894531 61.699219 50.796875 61.324219 50.792969 C 60.953125 50.796875 60.59375 50.855469 60.246094 50.976562 C 59.878906 51.097656 59.492188 51.238281 59.082031 51.398438 C 58.628906 51.546875 58.167969 51.667969 57.703125 51.765625 C 57.164062 51.875 56.625 51.925781 56.074219 51.925781 C 55.648438 51.910156 55.234375 51.832031 54.835938 51.683594 C 54.3125 51.488281 53.859375 51.183594 53.480469 50.769531 C 52.976562 50.214844 52.613281 49.578125 52.382812 48.867188 C 52.085938 48.042969 51.9375 46.984375 51.9375 45.683594 C 51.9375 44.386719 52.085938 43.324219 52.382812 42.503906 C 52.613281 41.789062 52.976562 41.152344 53.480469 40.597656 Z M 53.480469 40.597656 " fill-opacity="1" fill-rule="nonzero"/><g clip-path="url(#39211d4ed3)"><g clip-path="url(#7afb0f8641)"><path fill="url(#6a4ac7fb7f)" d="M 53.761719 12.964844 L 53.761719 55.039062 L 84.164062 55.039062 L 84.164062 12.964844 Z M 53.761719 12.964844 " fill-rule="nonzero"/></g></g><path fill="#0080fb" d="M 93.15625 47.660156 C 93.929688 47.648438 94.695312 47.574219 95.453125 47.4375 C 96.328125 47.292969 97.160156 47.019531 97.953125 46.625 C 98.746094 46.230469 99.421875 45.6875 99.984375 45.003906 C 100.554688 44.3125 100.839844 43.410156 100.839844 42.304688 C 100.867188 41.253906 100.609375 40.277344 100.0625 39.378906 C 99.558594 38.578125 98.910156 37.921875 98.113281 37.410156 C 97.324219 36.910156 96.480469 36.542969 95.574219 36.3125 C 94.757812 36.09375 93.921875 35.980469 93.078125 35.96875 C 91.765625 35.949219 90.511719 36.207031 89.316406 36.742188 C 88.21875 37.234375 87.265625 37.925781 86.453125 38.816406 C 85.648438 39.734375 85.046875 40.773438 84.644531 41.925781 C 84.214844 43.15625 84.003906 44.421875 84.015625 45.726562 C 84.003906 47.039062 84.242188 48.304688 84.726562 49.523438 C 85.179688 50.667969 85.824219 51.691406 86.664062 52.589844 C 87.492188 53.484375 88.460938 54.183594 89.570312 54.691406 C 90.6875 55.199219 91.859375 55.449219 93.085938 55.445312 C 94.453125 55.453125 95.761719 55.1875 97.015625 54.640625 C 98.269531 54.09375 99.355469 53.316406 100.277344 52.308594 L 100.398438 52.183594 L 100.277344 52.0625 C 100.042969 51.664062 99.730469 51.34375 99.34375 51.09375 C 99.03125 50.894531 98.695312 50.800781 98.328125 50.804688 C 97.957031 50.804688 97.597656 50.871094 97.25 51 C 96.882812 51.132812 96.5 51.269531 96.085938 51.402344 C 95.632812 51.550781 95.171875 51.671875 94.707031 51.765625 C 94.167969 51.875 93.628906 51.929688 93.082031 51.925781 C 92.707031 51.917969 92.339844 51.859375 91.984375 51.746094 C 91.527344 51.59375 91.121094 51.359375 90.765625 51.035156 C 90.308594 50.621094 89.941406 50.140625 89.667969 49.59375 C 89.300781 48.839844 89.085938 48.050781 89.015625 47.21875 C 89.289062 47.269531 89.796875 47.359375 90.542969 47.484375 C 91.410156 47.613281 92.28125 47.671875 93.15625 47.660156 Z M 89.730469 41.710938 C 90 41.183594 90.359375 40.722656 90.808594 40.328125 C 91.160156 40.023438 91.5625 39.800781 92.007812 39.660156 C 92.351562 39.550781 92.703125 39.476562 93.0625 39.4375 C 94.171875 39.382812 95.019531 39.597656 95.601562 40.085938 C 95.875 40.289062 96.082031 40.546875 96.222656 40.855469 C 96.363281 41.167969 96.421875 41.492188 96.394531 41.832031 C 96.339844 42.726562 96.007812 43.363281 95.398438 43.742188 C 94.75 44.136719 94.042969 44.367188 93.285156 44.433594 C 92.484375 44.515625 91.683594 44.492188 90.890625 44.371094 C 90.261719 44.285156 89.648438 44.15625 89.039062 43.984375 C 89.136719 43.183594 89.367188 42.425781 89.730469 41.710938 Z M 89.730469 41.710938 " fill-opacity="1" fill-rule="nonzero"/><path fill="#0080fb" d="M 112.980469 36.410156 C 111.929688 36.414062 110.894531 36.53125 109.871094 36.757812 C 108.773438 36.988281 107.796875 37.457031 106.933594 38.167969 C 106.070312 38.878906 105.421875 39.75 104.984375 40.78125 C 104.457031 41.933594 104.191406 43.421875 104.191406 45.238281 L 104.191406 50.523438 C 104.191406 52.152344 104.640625 53.308594 105.535156 54 C 106.433594 54.691406 107.707031 55.035156 109.363281 55.035156 C 109.335938 54.875 109.308594 54.632812 109.28125 54.304688 C 109.253906 54.007812 109.234375 53.609375 109.222656 53.105469 C 109.207031 52.605469 109.203125 51.945312 109.203125 51.132812 L 109.203125 45.234375 C 109.203125 44.09375 109.316406 43.1875 109.546875 42.511719 C 109.722656 41.925781 110.015625 41.402344 110.421875 40.945312 C 110.753906 40.585938 111.152344 40.328125 111.617188 40.171875 C 112.058594 40.023438 112.511719 39.917969 112.972656 39.863281 C 113.679688 39.78125 114.1875 39.554688 114.496094 39.175781 C 114.792969 38.835938 114.976562 38.441406 115.046875 37.996094 C 115.125 37.460938 115.097656 36.929688 114.964844 36.40625 Z M 112.980469 36.410156 " fill-opacity="1" fill-rule="nonzero"/><path fill="#0080fb" d="M 131.269531 47.910156 C 130.886719 47.046875 130.332031 46.316406 129.605469 45.71875 C 128.835938 45.082031 127.996094 44.566406 127.085938 44.167969 C 126.136719 43.75 125.246094 43.363281 124.402344 43.003906 C 123.796875 42.78125 123.238281 42.460938 122.738281 42.050781 C 122.339844 41.714844 122.179688 41.289062 122.25 40.769531 C 122.308594 40.398438 122.488281 40.09375 122.777344 39.859375 C 123.078125 39.601562 123.523438 39.472656 124.117188 39.472656 C 124.582031 39.472656 125.035156 39.546875 125.476562 39.695312 C 125.921875 39.839844 126.402344 40.023438 126.917969 40.238281 C 127.324219 40.398438 127.703125 40.554688 128.054688 40.703125 C 128.40625 40.851562 128.773438 40.925781 129.152344 40.925781 C 129.519531 40.929688 129.859375 40.835938 130.167969 40.640625 C 130.527344 40.417969 130.824219 40.132812 131.0625 39.785156 L 131.183594 39.621094 L 131.0625 39.5 C 130.203125 38.4375 129.164062 37.597656 127.945312 36.980469 C 126.726562 36.363281 125.4375 36.019531 124.074219 35.957031 L 123.59375 35.957031 C 123.085938 35.960938 122.582031 36.015625 122.085938 36.117188 C 121.527344 36.234375 120.992188 36.414062 120.480469 36.667969 C 119.953125 36.925781 119.472656 37.257812 119.039062 37.660156 C 118.589844 38.09375 118.234375 38.59375 117.984375 39.164062 C 117.714844 39.765625 117.566406 40.394531 117.535156 41.050781 C 117.507812 41.6875 117.589844 42.3125 117.78125 42.917969 C 117.976562 43.546875 118.28125 44.113281 118.695312 44.625 C 119.144531 45.175781 119.679688 45.628906 120.300781 45.980469 C 121.089844 46.480469 121.917969 46.914062 122.777344 47.277344 C 123.5625 47.605469 124.246094 47.910156 124.832031 48.195312 C 125.328125 48.417969 125.773438 48.714844 126.171875 49.085938 C 126.5 49.40625 126.628906 49.792969 126.558594 50.25 C 126.503906 50.636719 126.265625 51.007812 125.847656 51.386719 C 125.429688 51.765625 124.730469 51.953125 123.753906 51.953125 C 123.222656 51.90625 122.703125 51.8125 122.1875 51.667969 C 121.746094 51.546875 121.320312 51.386719 120.910156 51.183594 C 120.5 51.019531 120.132812 50.863281 119.769531 50.714844 C 119.421875 50.566406 119.054688 50.492188 118.675781 50.492188 C 118.332031 50.496094 118.007812 50.578125 117.707031 50.734375 C 117.570312 50.84375 117.421875 50.964844 117.261719 51.101562 C 117.082031 51.253906 116.933594 51.429688 116.8125 51.628906 L 116.691406 51.792969 L 116.8125 51.914062 C 117.679688 52.976562 118.730469 53.804688 119.960938 54.40625 C 121.167969 55.019531 122.449219 55.363281 123.804688 55.429688 C 123.976562 55.457031 124.152344 55.472656 124.332031 55.46875 C 125.324219 55.488281 126.292969 55.34375 127.238281 55.042969 C 127.996094 54.792969 128.699219 54.433594 129.347656 53.964844 C 129.894531 53.574219 130.34375 53.09375 130.703125 52.527344 C 131.007812 52.050781 131.238281 51.542969 131.394531 51.003906 C 131.691406 49.792969 131.648438 48.761719 131.269531 47.910156 Z M 131.269531 47.910156 " fill-opacity="1" fill-rule="nonzero"/></svg>