<?xml version="1.0" encoding="UTF-8"?>
<svg id="Layer_1" data-name="Layer 1" xmlns="http://www.w3.org/2000/svg" viewBox="0 0 113.52 28.56">
  <defs>
    <style>
      .cls-1 {
        fill: #231f20;
      }
    </style>
  </defs>
  <g>
    <path class="cls-1" d="M23.26,7.05c-1.21-2.11-2.91-3.74-5.1-4.91C15.96,.98,13.39,.4,10.45,.4H0V6.21H6.79s3.22-.01,3.22-.01c2.57,0,4.57,.72,6,2.14,1.43,1.43,2.15,3.43,2.15,6s-.72,4.55-2.15,5.96c-1.43,1.41-3.43,2.11-6,2.11h-3.22v-.02H0v5.9H10.45c2.91,0,5.48-.58,7.69-1.75,2.21-1.17,3.92-2.81,5.12-4.93,1.21-2.12,1.81-4.54,1.81-7.27s-.6-5.19-1.81-7.29Z"/>
    <path class="cls-1" d="M33.27,26.73c-2.19-1.22-3.92-2.92-5.2-5.1-1.29-2.18-1.93-4.64-1.93-7.37s.64-5.18,1.93-7.35c1.28-2.17,3.02-3.87,5.2-5.08,2.18-1.22,4.59-1.83,7.21-1.83s5.03,.61,7.21,1.83c2.18,1.22,3.91,2.91,5.16,5.08,1.26,2.17,1.89,4.62,1.89,7.35s-.64,5.18-1.91,7.37c-1.27,2.18-2.99,3.89-5.16,5.1-2.17,1.22-4.57,1.83-7.19,1.83s-5.03-.61-7.21-1.83Zm12.55-6.59c1.34-1.48,2.01-3.44,2.01-5.88s-.67-4.43-2.01-5.9-3.12-2.2-5.34-2.2-4.05,.73-5.38,2.18c-1.34,1.46-2.01,3.43-2.01,5.92s.67,4.43,2.01,5.9c1.34,1.47,3.13,2.2,5.38,2.2s4.01-.74,5.34-2.22Z"/>
  </g>
  <g>
    <path class="cls-1" d="M61.62,21.17c-.69-.3-1.23-.72-1.63-1.24-.4-.53-.62-1.12-.67-1.77h3.07c.04,.35,.2,.64,.49,.85,.29,.22,.65,.33,1.07,.33,.39,0,.69-.08,.9-.23,.21-.15,.32-.35,.32-.59,0-.29-.15-.5-.45-.64-.3-.14-.79-.29-1.47-.46-.73-.17-1.33-.35-1.81-.54-.48-.19-.9-.48-1.25-.89-.35-.41-.53-.95-.53-1.64,0-.58,.16-1.11,.48-1.59,.32-.48,.79-.86,1.42-1.13,.62-.28,1.36-.42,2.22-.42,1.27,0,2.27,.31,3,.94,.73,.63,1.15,1.46,1.26,2.5h-2.87c-.05-.35-.2-.63-.46-.83-.26-.21-.6-.31-1.03-.31-.36,0-.64,.07-.83,.21-.19,.14-.29,.33-.29,.57,0,.29,.15,.51,.46,.65,.31,.14,.79,.29,1.44,.44,.75,.19,1.36,.38,1.83,.57,.47,.19,.89,.49,1.24,.91,.36,.42,.54,.98,.55,1.68,0,.59-.17,1.12-.5,1.59s-.81,.83-1.43,1.1c-.62,.27-1.35,.4-2.17,.4-.88,0-1.67-.15-2.36-.45Z"/>
    <path class="cls-1" d="M74.9,18.84v2.63h-1.58c-1.12,0-2-.28-2.63-.83-.63-.55-.94-1.45-.94-2.69v-4.03h-1.23v-2.58h1.23v-2.47h3.1v2.47h2.03v2.58h-2.03v4.06c0,.3,.07,.52,.22,.65,.15,.13,.39,.2,.73,.2h1.11Z"/>
    <path class="cls-1" d="M85.89,11.35v10.12h-3.1v-1.38c-.31,.45-.74,.81-1.28,1.08-.54,.27-1.13,.41-1.79,.41-.77,0-1.46-.17-2.05-.52-.59-.34-1.05-.84-1.38-1.5s-.49-1.42-.49-2.3v-5.91h3.08v5.5c0,.68,.18,1.2,.53,1.58,.35,.38,.82,.56,1.42,.56s1.08-.19,1.43-.56c.35-.37,.53-.9,.53-1.58v-5.5h3.1Z"/>
    <path class="cls-1" d="M87.37,13.65c.39-.79,.93-1.39,1.61-1.81,.68-.42,1.43-.63,2.27-.63,.67,0,1.27,.14,1.82,.42,.55,.28,.98,.65,1.3,1.12v-4.7h3.1v13.43h-3.1v-1.45c-.29,.48-.7,.87-1.24,1.16-.54,.29-1.16,.44-1.88,.44-.83,0-1.59-.21-2.27-.64-.68-.43-1.21-1.04-1.61-1.83-.39-.79-.59-1.71-.59-2.75s.2-1.95,.59-2.74Zm6.35,.93c-.43-.45-.95-.67-1.57-.67s-1.14,.22-1.57,.66c-.43,.44-.64,1.05-.64,1.82s.21,1.39,.64,1.84c.43,.45,.95,.68,1.57,.68s1.14-.22,1.57-.67c.43-.45,.64-1.06,.64-1.83s-.21-1.39-.64-1.83Z"/>
    <path class="cls-1" d="M99.22,9.82c-.34-.32-.52-.72-.52-1.19s.17-.89,.52-1.21c.34-.32,.79-.48,1.33-.48s.97,.16,1.32,.48c.34,.32,.52,.72,.52,1.21s-.17,.87-.52,1.19c-.34,.32-.78,.48-1.32,.48s-.99-.16-1.33-.48Zm2.88,1.53v10.12h-3.1V11.35h3.1Z"/>
    <path class="cls-1" d="M105.55,20.98c-.79-.42-1.42-1.03-1.87-1.81-.45-.79-.68-1.71-.68-2.76s.23-1.96,.69-2.75c.46-.79,1.09-1.4,1.89-1.82,.8-.42,1.69-.63,2.69-.63s1.89,.21,2.69,.63c.8,.42,1.43,1.03,1.89,1.82,.46,.79,.69,1.71,.69,2.75s-.23,1.96-.7,2.75c-.47,.79-1.1,1.4-1.91,1.82-.8,.42-1.7,.64-2.69,.64s-1.88-.21-2.68-.64Zm4.19-2.7c.42-.44,.63-1.06,.63-1.87s-.2-1.43-.61-1.87c-.41-.44-.9-.65-1.5-.65s-1.11,.21-1.51,.64c-.4,.43-.6,1.06-.6,1.88s.2,1.43,.59,1.87c.39,.44,.89,.65,1.48,.65s1.1-.22,1.52-.65Z"/>
  </g>
</svg>